<svg id="visual" viewBox="0 0 960 540" width="960" height="540" xmlns="http://www.w3.org/2000/svg" xmlns:xlink="http://www.w3.org/1999/xlink" version="1.1"><rect x="0" y="0" width="960" height="540" fill="#001c31"></rect><path d="M0 278L10 275.3C20 272.7 40 267.3 60 266C80 264.7 100 267.3 120 270.8C140 274.3 160 278.7 180 275.5C200 272.3 220 261.7 240 259.3C260 257 280 263 300 267.3C320 271.7 340 274.3 360 277.3C380 280.3 400 283.7 420 284.7C440 285.7 460 284.3 480 282.3C500 280.3 520 277.7 540 277.7C560 277.7 580 280.3 600 276.7C620 273 640 263 660 264C680 265 700 277 720 281.3C740 285.7 760 282.3 780 281.8C800 281.3 820 283.7 840 280C860 276.3 880 266.7 900 263.8C920 261 940 265 950 267L960 269L960 541L950 541C940 541 920 541 900 541C880 541 860 541 840 541C820 541 800 541 780 541C760 541 740 541 720 541C700 541 680 541 660 541C640 541 620 541 600 541C580 541 560 541 540 541C520 541 500 541 480 541C460 541 440 541 420 541C400 541 380 541 360 541C340 541 320 541 300 541C280 541 260 541 240 541C220 541 200 541 180 541C160 541 140 541 120 541C100 541 80 541 60 541C40 541 20 541 10 541L0 541Z" fill="#00082f"></path><path d="M0 288L10 291.2C20 294.3 40 300.7 60 302.5C80 304.3 100 301.7 120 304.2C140 306.7 160 314.3 180 317.2C200 320 220 318 240 316C260 314 280 312 300 308.7C320 305.3 340 300.7 360 302.5C380 304.3 400 312.7 420 316.2C440 319.7 460 318.3 480 318.2C500 318 520 319 540 317.8C560 316.7 580 313.3 600 309.2C620 305 640 300 660 297.7C680 295.3 700 295.7 720 295C740 294.3 760 292.7 780 294.3C800 296 820 301 840 306.7C860 312.3 880 318.7 900 320.5C920 322.3 940 319.7 950 318.3L960 317L960 541L950 541C940 541 920 541 900 541C880 541 860 541 840 541C820 541 800 541 780 541C760 541 740 541 720 541C700 541 680 541 660 541C640 541 620 541 600 541C580 541 560 541 540 541C520 541 500 541 480 541C460 541 440 541 420 541C400 541 380 541 360 541C340 541 320 541 300 541C280 541 260 541 240 541C220 541 200 541 180 541C160 541 140 541 120 541C100 541 80 541 60 541C40 541 20 541 10 541L0 541Z" fill="#1b1440"></path><path d="M0 362L10 360.5C20 359 40 356 60 352.3C80 348.7 100 344.3 120 346.2C140 348 160 356 180 354.8C200 353.7 220 343.3 240 342.2C260 341 280 349 300 350C320 351 340 345 360 341C380 337 400 335 420 337.5C440 340 460 347 480 350.5C500 354 520 354 540 353C560 352 580 350 600 348.7C620 347.3 640 346.7 660 345.8C680 345 700 344 720 345.3C740 346.7 760 350.3 780 353.3C800 356.3 820 358.7 840 357C860 355.3 880 349.7 900 348C920 346.3 940 348.7 950 349.8L960 351L960 541L950 541C940 541 920 541 900 541C880 541 860 541 840 541C820 541 800 541 780 541C760 541 740 541 720 541C700 541 680 541 660 541C640 541 620 541 600 541C580 541 560 541 540 541C520 541 500 541 480 541C460 541 440 541 420 541C400 541 380 541 360 541C340 541 320 541 300 541C280 541 260 541 240 541C220 541 200 541 180 541C160 541 140 541 120 541C100 541 80 541 60 541C40 541 20 541 10 541L0 541Z" fill="#38194e"></path><path d="M0 382L10 384.2C20 386.3 40 390.7 60 393.2C80 395.7 100 396.3 120 393.8C140 391.3 160 385.7 180 382.5C200 379.3 220 378.7 240 378C260 377.3 280 376.7 300 377C320 377.3 340 378.7 360 377.3C380 376 400 372 420 372.8C440 373.7 460 379.3 480 380.2C500 381 520 377 540 375.2C560 373.3 580 373.7 600 378C620 382.3 640 390.7 660 395.2C680 399.7 700 400.3 720 397.3C740 394.3 760 387.7 780 382.3C800 377 820 373 840 371.3C860 369.7 880 370.3 900 375.2C920 380 940 389 950 393.5L960 398L960 541L950 541C940 541 920 541 900 541C880 541 860 541 840 541C820 541 800 541 780 541C760 541 740 541 720 541C700 541 680 541 660 541C640 541 620 541 600 541C580 541 560 541 540 541C520 541 500 541 480 541C460 541 440 541 420 541C400 541 380 541 360 541C340 541 320 541 300 541C280 541 260 541 240 541C220 541 200 541 180 541C160 541 140 541 120 541C100 541 80 541 60 541C40 541 20 541 10 541L0 541Z" fill="#561d59"></path><path d="M0 425L10 423.2C20 421.3 40 417.7 60 419.7C80 421.7 100 429.3 120 433.2C140 437 160 437 180 431.7C200 426.3 220 415.7 240 411C260 406.3 280 407.7 300 408C320 408.3 340 407.7 360 406.8C380 406 400 405 420 406.2C440 407.3 460 410.7 480 412.2C500 413.7 520 413.3 540 413.8C560 414.3 580 415.7 600 417.2C620 418.7 640 420.3 660 422.7C680 425 700 428 720 428.2C740 428.3 760 425.7 780 423.8C800 422 820 421 840 422.2C860 423.3 880 426.7 900 425.3C920 424 940 418 950 415L960 412L960 541L950 541C940 541 920 541 900 541C880 541 860 541 840 541C820 541 800 541 780 541C760 541 740 541 720 541C700 541 680 541 660 541C640 541 620 541 600 541C580 541 560 541 540 541C520 541 500 541 480 541C460 541 440 541 420 541C400 541 380 541 360 541C340 541 320 541 300 541C280 541 260 541 240 541C220 541 200 541 180 541C160 541 140 541 120 541C100 541 80 541 60 541C40 541 20 541 10 541L0 541Z" fill="#752060"></path><path d="M0 459L10 456.7C20 454.3 40 449.7 60 450C80 450.3 100 455.7 120 458.5C140 461.3 160 461.7 180 462.3C200 463 220 464 240 464.2C260 464.3 280 463.7 300 463.5C320 463.3 340 463.7 360 465.7C380 467.7 400 471.3 420 472.2C440 473 460 471 480 468.2C500 465.3 520 461.7 540 461C560 460.3 580 462.7 600 463.3C620 464 640 463 660 460.5C680 458 700 454 720 451.3C740 448.7 760 447.3 780 446.3C800 445.3 820 444.7 840 447.8C860 451 880 458 900 460.2C920 462.3 940 459.7 950 458.3L960 457L960 541L950 541C940 541 920 541 900 541C880 541 860 541 840 541C820 541 800 541 780 541C760 541 740 541 720 541C700 541 680 541 660 541C640 541 620 541 600 541C580 541 560 541 540 541C520 541 500 541 480 541C460 541 440 541 420 541C400 541 380 541 360 541C340 541 320 541 300 541C280 541 260 541 240 541C220 541 200 541 180 541C160 541 140 541 120 541C100 541 80 541 60 541C40 541 20 541 10 541L0 541Z" fill="#942363"></path><path d="M0 513L10 508.2C20 503.3 40 493.7 60 490.7C80 487.7 100 491.3 120 496.3C140 501.3 160 507.7 180 509.2C200 510.7 220 507.3 240 504.5C260 501.7 280 499.3 300 500.7C320 502 340 507 360 507.8C380 508.7 400 505.3 420 505.5C440 505.7 460 509.3 480 510C500 510.7 520 508.3 540 508.2C560 508 580 510 600 506.8C620 503.7 640 495.3 660 491.5C680 487.7 700 488.3 720 491C740 493.7 760 498.3 780 502C800 505.7 820 508.3 840 510C860 511.7 880 512.3 900 509C920 505.7 940 498.3 950 494.7L960 491L960 541L950 541C940 541 920 541 900 541C880 541 860 541 840 541C820 541 800 541 780 541C760 541 740 541 720 541C700 541 680 541 660 541C640 541 620 541 600 541C580 541 560 541 540 541C520 541 500 541 480 541C460 541 440 541 420 541C400 541 380 541 360 541C340 541 320 541 300 541C280 541 260 541 240 541C220 541 200 541 180 541C160 541 140 541 120 541C100 541 80 541 60 541C40 541 20 541 10 541L0 541Z" fill="#b22962"></path></svg>