<svg id="visual" viewBox="0 0 960 540" width="960" height="540" xmlns="http://www.w3.org/2000/svg" xmlns:xlink="http://www.w3.org/1999/xlink" version="1.1"><rect x="0" y="0" width="960" height="540" fill="#001c31"></rect><path d="M0 44L26.7 53.2C53.3 62.3 106.7 80.7 160 91.5C213.3 102.3 266.7 105.7 320 99.2C373.3 92.7 426.7 76.3 480 66.7C533.3 57 586.7 54 640 68.8C693.3 83.7 746.7 116.3 800 122.7C853.3 129 906.7 109 933.3 99L960 89L960 0L933.3 0C906.7 0 853.3 0 800 0C746.7 0 693.3 0 640 0C586.7 0 533.3 0 480 0C426.7 0 373.3 0 320 0C266.7 0 213.3 0 160 0C106.7 0 53.3 0 26.7 0L0 0Z" fill="#142d52" stroke-linecap="round" stroke-linejoin="miter"></path></svg>